<svg width="24" height="24" viewBox="0 0 24 24" fill="none" xmlns="http://www.w3.org/2000/svg">
<path d="M4.81 9.19C3.26 9.19 2 10.45 2 12C2 13.55 3.26 14.81 4.81 14.81C6.35 14.81 7.60999 13.55 7.60999 12C7.60999 10.45 6.35 9.19 4.81 9.19Z" fill="url(#paint0_linear_532_2375)"/>
<path d="M11.9999 14.81C13.5519 14.81 14.8099 13.5519 14.8099 12C14.8099 10.4481 13.5519 9.19 11.9999 9.19C10.448 9.19 9.18994 10.4481 9.18994 12C9.18994 13.5519 10.448 14.81 11.9999 14.81Z" fill="url(#paint1_linear_532_2375)"/>
<path d="M19.19 9.19C17.65 9.19 16.39 10.45 16.39 12C16.39 13.55 17.65 14.81 19.19 14.81C20.74 14.81 22 13.55 22 12C22 10.45 20.74 9.19 19.19 9.19Z" fill="url(#paint2_linear_532_2375)"/>
<defs>
<linearGradient id="paint0_linear_532_2375" x1="1.69145" y1="9.19" x2="10.8553" y2="11.1466" gradientUnits="userSpaceOnUse">
<stop stop-color="#F78FB3"/>
<stop offset="1" stop-color="#FF694A"/>
</linearGradient>
<linearGradient id="paint1_linear_532_2375" x1="8.88084" y1="9.19" x2="18.0597" y2="11.1533" gradientUnits="userSpaceOnUse">
<stop stop-color="#F78FB3"/>
<stop offset="1" stop-color="#FF694A"/>
</linearGradient>
<linearGradient id="paint2_linear_532_2375" x1="16.0815" y1="9.19" x2="25.2454" y2="11.1466" gradientUnits="userSpaceOnUse">
<stop stop-color="#F78FB3"/>
<stop offset="1" stop-color="#FF694A"/>
</linearGradient>
</defs>
</svg>
